<svg xmlns="http://www.w3.org/2000/svg" xmlns:xlink="http://www.w3.org/1999/xlink" version="1.1" x="0px" y="0px" viewBox="0 0 100 125" style="enable-background:new 0 0 100 100;" xml:space="preserve"><g><ellipse transform="matrix(0.9871 -0.1602 0.1602 0.9871 -7.879 2.2598)" cx="10.1" cy="50" rx="7.1" ry="7.1"/><circle cx="29.5" cy="50" r="7.1"/><circle cx="49" cy="50" r="7.1"/><circle cx="68.5" cy="50" r="7.1"/><path d="M87.9,42.9c-3.9,0-7.1,3.2-7.1,7.1c0,3.9,3.2,7.1,7.1,7.1c3.9,0,7.1-3.2,7.1-7.1C95,46.1,91.8,42.9,87.9,42.9z M87.9,56.1   c-3.4,0-6.1-2.7-6.1-6.1s2.7-6.1,6.1-6.1S94,46.6,94,50S91.3,56.1,87.9,56.1z"/></g><text x="0" y="115" fill="#000000" font-size="5px" font-weight="bold" font-family="'Helvetica Neue', Helvetica, Arial-Unicode, Arial, Sans-serif">Created by C. V. Galli</text><text x="0" y="120" fill="#000000" font-size="5px" font-weight="bold" font-family="'Helvetica Neue', Helvetica, Arial-Unicode, Arial, Sans-serif">from the Noun Project</text></svg>