<svg xmlns="http://www.w3.org/2000/svg" xmlns:xlink="http://www.w3.org/1999/xlink" version="1.1" x="0px" y="0px" viewBox="0 0 100 125" style="enable-background:new 0 0 100 100;" xml:space="preserve"><g><ellipse transform="matrix(0.3827 -0.9239 0.9239 0.3827 -39.9733 40.1757)" cx="10.1" cy="50" rx="7.1" ry="7.1"/><ellipse transform="matrix(0.3827 -0.9239 0.9239 0.3827 -27.9594 58.1558)" cx="29.5" cy="50" rx="7.1" ry="7.1"/><path d="M49,42.9c-3.9,0-7.1,3.2-7.1,7.1c0,3.9,3.2,7.1,7.1,7.1c3.9,0,7.1-3.2,7.1-7.1C56.1,46.1,52.9,42.9,49,42.9z M49,56.1   c-3.4,0-6.1-2.7-6.1-6.1s2.7-6.1,6.1-6.1s6.1,2.7,6.1,6.1S52.4,56.1,49,56.1z"/><path d="M68.5,42.9c-3.9,0-7.1,3.2-7.1,7.1c0,3.9,3.2,7.1,7.1,7.1c3.9,0,7.1-3.2,7.1-7.1C75.5,46.1,72.4,42.9,68.5,42.9z    M68.5,56.1c-3.4,0-6.1-2.7-6.1-6.1s2.7-6.1,6.1-6.1s6.1,2.7,6.1,6.1S71.8,56.1,68.5,56.1z"/><path d="M87.9,42.9c-3.9,0-7.1,3.2-7.1,7.1c0,3.9,3.2,7.1,7.1,7.1c3.9,0,7.1-3.2,7.1-7.1C95,46.1,91.8,42.9,87.9,42.9z M87.9,56.1   c-3.4,0-6.1-2.7-6.1-6.1s2.7-6.1,6.1-6.1S94,46.6,94,50S91.3,56.1,87.9,56.1z"/></g><text x="0" y="115" fill="#000000" font-size="5px" font-weight="bold" font-family="'Helvetica Neue', Helvetica, Arial-Unicode, Arial, Sans-serif">Created by C. V. Galli</text><text x="0" y="120" fill="#000000" font-size="5px" font-weight="bold" font-family="'Helvetica Neue', Helvetica, Arial-Unicode, Arial, Sans-serif">from the Noun Project</text></svg>